<?xml version="1.0" standalone="no"?>
<!DOCTYPE svg PUBLIC "-//W3C//DTD SVG 20010904//EN"
 "http://www.w3.org/TR/2001/REC-SVG-20010904/DTD/svg10.dtd">
<svg version="1.0" xmlns="http://www.w3.org/2000/svg"
 width="1072.000000pt" height="1072.000000pt" viewBox="0 0 1072.000000 1072.000000"
 preserveAspectRatio="xMidYMid meet">
<metadata>
Created by potrace 1.14, written by Peter Selinger 2001-2017
</metadata>
<g transform="translate(0.000000,1072.000000) scale(0.100000,-0.100000)"
fill="#000000" stroke="none">
<path d="M4754 9628 c4 -117 8 -267 11 -333 13 -392 17 -542 17 -557 -1 -18 6
-20 60 -20 60 -1 59 -8 44 290 -2 51 0 62 13 63 20 2 147 7 266 10 l90 3 63
-85 c35 -46 69 -91 75 -99 7 -9 26 -36 42 -60 17 -25 40 -56 53 -70 12 -14 22
-28 22 -32 0 -4 27 -6 60 -5 33 1 60 5 60 9 0 4 -28 46 -62 94 -35 47 -67 93
-73 102 -5 8 -15 23 -22 31 -58 78 -93 127 -93 132 0 4 22 21 49 37 121 75
174 171 174 317 0 85 -6 112 -35 175 -31 66 -93 131 -156 161 -90 43 -130 48
-410 49 l-254 0 6 -212z m571 82 c28 -13 52 -28 53 -32 2 -4 9 -8 15 -8 18 0
72 -88 84 -135 24 -97 -5 -216 -67 -274 -28 -27 -109 -67 -155 -76 -16 -4 -73
-8 -125 -10 -273 -9 -246 -11 -248 23 -1 26 -12 354 -15 472 l-2 55 65 3 c36
1 72 4 80 5 8 2 71 2 140 2 109 -1 131 -5 175 -25z"/>
<path d="M5900 9834 c0 -6 33 -87 61 -151 11 -24 19 -45 19 -48 0 -3 52 -136
116 -296 110 -277 116 -294 110 -343 -15 -115 -24 -181 -30 -211 -18 -99 -18
-115 4 -123 11 -4 37 -8 57 -7 32 0 37 3 39 25 1 14 5 43 8 65 4 22 8 56 11
75 2 19 6 49 9 65 3 17 8 50 11 75 4 25 8 50 9 56 2 11 36 60 62 87 5 7 59 73
119 147 60 74 114 140 120 146 5 6 22 26 37 45 14 19 63 79 107 134 44 54 77
102 73 106 -4 4 -28 10 -53 14 l-45 7 -115 -144 c-64 -78 -122 -150 -130 -158
-8 -8 -26 -31 -41 -52 -15 -20 -33 -42 -40 -50 -7 -7 -38 -43 -67 -81 -49 -61
-74 -77 -77 -51 0 5 -4 18 -9 29 -4 11 -55 139 -112 285 -57 146 -108 273
-114 282 -5 10 -9 25 -9 33 0 9 -10 19 -22 24 -32 11 -108 22 -108 15z"/>
<path d="M4045 9714 c-71 -19 -139 -36 -150 -38 -11 -2 -67 -16 -125 -31 -58
-14 -116 -28 -130 -30 -14 -2 -25 -4 -25 -5 0 -1 -8 -3 -17 -6 -19 -4 -26 -6
-69 -18 -25 -7 -26 -10 -18 -41 5 -18 9 -37 8 -42 -1 -4 0 -15 4 -23 5 -13 13
-50 42 -180 2 -8 8 -35 15 -60 6 -25 12 -54 14 -65 2 -11 16 -72 30 -135 15
-63 29 -124 30 -135 3 -17 12 -57 33 -140 2 -11 6 -31 8 -45 2 -14 14 -63 26
-110 12 -47 21 -93 21 -103 -1 -19 2 -19 108 8 36 9 76 18 90 21 14 3 70 17
125 31 88 22 122 30 160 37 6 1 15 4 20 8 6 3 27 9 49 12 21 4 42 8 46 11 4 3
25 7 46 11 22 3 47 10 57 15 9 5 17 7 17 3 0 -3 6 -1 14 5 11 9 12 19 2 51 -6
21 -14 42 -18 45 -3 3 -26 1 -49 -5 -24 -7 -52 -14 -62 -16 -10 -2 -27 -6 -37
-9 -10 -3 -27 -8 -37 -10 -10 -2 -103 -25 -208 -50 -213 -53 -236 -57 -241
-35 -2 8 -8 35 -13 60 -5 25 -19 83 -31 130 -11 47 -22 94 -24 105 -2 11 -6
35 -10 53 -8 34 -5 37 44 46 14 3 45 10 70 17 25 6 50 12 55 13 6 2 28 8 50
14 22 6 54 14 70 17 17 3 35 7 40 9 6 1 46 11 90 21 115 25 114 25 102 80 -11
49 -13 49 -82 31 -42 -11 -111 -28 -132 -32 -12 -2 -33 -8 -45 -13 -13 -5 -26
-9 -31 -9 -6 -1 -70 -13 -89 -18 -5 -1 -9 -2 -10 -4 -2 -1 -10 -3 -18 -5 -8
-1 -42 -10 -74 -18 -33 -9 -62 -14 -66 -12 -4 2 -12 28 -18 57 -7 29 -15 64
-18 78 -3 14 -7 34 -9 45 -2 11 -13 60 -25 109 -12 48 -20 90 -18 92 3 2 15 6
29 8 13 2 24 5 24 6 0 1 11 4 25 6 14 3 43 9 65 15 22 6 48 13 57 15 44 10 57
13 118 29 36 10 76 19 90 22 14 2 63 14 110 27 93 24 89 19 78 99 -3 23 -27
21 -183 -19z"/>
<path d="M7831 9388 c-5 -13 -16 -40 -24 -61 -9 -20 -16 -40 -17 -42 0 -3 -8
-24 -17 -46 l-16 -41 -15 28 c-8 16 -18 31 -22 34 -3 3 -17 24 -30 48 -13 23
-27 42 -32 42 -4 0 -8 7 -8 15 0 21 -13 19 -43 -9 l-26 -24 64 -84 c35 -45 61
-86 57 -90 -4 -3 -29 -9 -57 -13 -116 -13 -140 -17 -142 -18 -3 -4 -5 -33 -4
-55 1 -19 5 -22 29 -18 15 3 46 8 70 11 23 3 60 7 82 10 l39 5 -30 -67 c-17
-38 -30 -68 -29 -68 2 0 -20 -56 -25 -65 -2 -4 11 -14 29 -23 l34 -16 17 47
c10 26 25 65 35 87 9 22 20 49 24 59 6 17 9 16 29 -12 108 -151 109 -152 126
-142 47 25 45 35 -18 120 -34 44 -61 85 -61 90 0 6 12 10 28 11 15 0 36 2 47
4 22 4 92 13 113 14 7 1 12 16 12 41 0 40 0 40 -35 35 -19 -3 -52 -7 -72 -10
-21 -3 -56 -8 -77 -11 -35 -6 -38 -4 -32 12 31 76 66 178 66 188 0 11 -39 36
-56 36 -2 0 -8 -10 -13 -22z"/>
<path d="M2501 9169 c-19 -10 -38 -22 -44 -28 -9 -9 39 -129 135 -341 20 -45
40 -91 43 -100 1 -3 13 -31 28 -64 15 -32 27 -60 27 -62 0 -2 11 -27 24 -56
40 -88 61 -137 116 -263 28 -66 55 -123 58 -127 7 -6 37 7 287 127 66 32 175
84 243 116 l123 58 -22 43 c-12 24 -23 45 -25 47 -1 1 -20 -6 -41 -17 -21 -12
-81 -41 -133 -65 -52 -25 -152 -72 -223 -106 -128 -61 -157 -70 -157 -50 0 6
-6 25 -14 42 -8 18 -72 163 -142 322 -69 160 -134 308 -144 330 -10 22 -32 74
-50 115 -41 96 -46 101 -89 79z"/>
<path d="M8870 8606 c-64 -18 -100 -40 -137 -83 -52 -59 -67 -100 -67 -174 1
-79 32 -153 115 -276 114 -169 138 -207 133 -215 -3 -4 -1 -8 4 -8 12 0 26
-65 23 -105 -4 -44 -45 -102 -92 -125 -84 -43 -199 -1 -313 113 -53 53 -83 94
-109 149 -20 42 -38 85 -40 97 -2 11 -6 23 -9 27 -4 3 -4 12 -1 20 7 19 1 18
-51 -7 l-44 -22 13 -52 c32 -141 152 -307 281 -390 93 -61 209 -95 242 -71 6
4 12 6 12 2 0 -16 108 38 143 71 55 54 79 105 82 177 2 56 -19 142 -37 156 -4
3 -12 17 -18 30 -12 28 -16 35 -121 192 -88 130 -99 156 -100 230 -1 81 94
165 172 153 54 -8 62 -10 99 -25 44 -18 47 -20 129 -100 68 -65 97 -105 121
-170 22 -58 27 -61 68 -37 20 11 39 22 41 23 2 2 -2 18 -10 36 -7 18 -14 38
-15 44 -8 50 -203 274 -240 274 -8 0 -14 4 -14 9 0 14 -116 60 -167 65 -26 2
-68 -1 -93 -8z"/>
<path d="M1560 8542 c0 -4 -18 -22 -40 -39 l-40 -31 78 -108 c43 -60 163 -228
267 -372 105 -145 195 -271 200 -280 6 -9 17 -24 25 -33 8 -10 26 -36 40 -58
23 -38 50 -54 50 -31 0 6 6 10 14 10 8 0 16 3 18 8 2 4 35 32 73 62 39 30 72
58 73 62 2 5 10 8 18 8 8 0 14 4 14 8 0 5 21 24 48 43 45 32 71 53 96 74 6 6
45 36 88 68 113 86 114 87 86 130 -22 34 -48 49 -48 27 0 -5 -6 -10 -14 -10
-8 0 -16 -4 -18 -8 -3 -6 -172 -142 -278 -222 -18 -14 -60 -47 -93 -73 -33
-27 -63 -45 -67 -40 -4 4 -47 64 -96 133 -48 69 -91 127 -96 128 -4 2 -8 8 -8
13 0 7 -45 72 -79 115 -5 6 -35 49 -67 95 -32 46 -60 86 -64 89 -3 3 -32 43
-65 90 -63 92 -115 156 -115 142z"/>
<path d="M9717 7925 c-20 -14 -37 -29 -37 -33 0 -4 47 -77 105 -162 l104 -155
-22 -18 c-12 -9 -69 -52 -127 -95 -58 -42 -112 -82 -120 -89 -8 -7 -82 -62
-165 -122 -82 -61 -155 -115 -162 -121 -7 -5 -17 -10 -23 -10 -5 0 -10 -4 -10
-8 0 -4 -37 -35 -83 -67 l-83 -60 29 -47 c17 -27 33 -48 36 -48 3 0 31 20 62
43 32 23 67 49 79 57 13 8 35 24 49 36 14 11 93 69 174 127 82 59 154 112 160
117 7 6 48 36 92 68 44 31 103 74 131 94 l51 37 108 -159 108 -160 36 27 c20
14 37 28 39 29 4 3 -18 47 -27 54 -13 11 -51 70 -51 79 0 5 -4 11 -8 13 -4 2
-95 134 -201 293 -107 160 -197 293 -200 297 -4 4 -23 -4 -44 -17z"/>
<path d="M773 7684 l-32 -47 82 -161 c45 -89 85 -163 88 -166 3 -3 22 -39 44
-80 82 -161 127 -246 137 -257 6 -7 7 -13 3 -13 -4 0 -3 -6 3 -12 10 -13 46
-81 147 -275 33 -61 62 -110 66 -107 20 12 68 98 60 108 -5 6 -28 47 -51 91
-23 44 -53 99 -66 123 -13 23 -24 47 -24 53 0 9 211 309 237 336 6 7 22 29 34
50 13 21 30 46 39 56 48 58 49 59 72 51 13 -4 28 -8 33 -9 18 -2 89 -17 163
-36 82 -20 80 -20 129 49 l23 31 -23 7 c-12 4 -31 8 -42 10 -11 1 -20 3 -20 4
0 2 -9 4 -20 6 -11 1 -29 5 -40 8 -40 10 -371 85 -395 90 -14 2 -56 12 -95 21
-38 9 -81 19 -95 21 -14 3 -41 9 -60 14 -19 5 -46 11 -60 14 -14 2 -59 12
-100 22 -41 9 -81 17 -87 17 -7 0 -13 3 -13 6 0 3 -10 6 -22 7 -13 0 -36 3
-53 7 -27 7 -33 3 -62 -39z m240 -109 c15 -3 56 -12 90 -21 34 -8 71 -17 82
-19 21 -5 77 -18 85 -20 3 -1 23 -5 45 -10 54 -12 54 -12 63 -15 4 -1 12 -3
17 -5 6 -1 15 -3 20 -5 18 -5 30 -7 43 -8 21 -3 14 -21 -31 -80 -24 -31 -50
-68 -57 -82 -7 -13 -18 -30 -24 -36 -22 -23 -46 -54 -46 -59 0 -5 -103 -149
-120 -168 -7 -8 -32 34 -154 266 -116 220 -139 263 -147 273 -16 20 1 22 54 8
29 -8 65 -16 80 -19z"/>
<path d="M5733 7319 c-21 -11 -53 -39 -71 -63 -18 -24 -43 -55 -55 -68 -13
-13 -41 -47 -62 -74 -22 -27 -42 -51 -45 -54 -3 -3 -25 -30 -50 -60 -25 -30
-49 -60 -55 -66 -5 -6 -26 -31 -47 -55 -20 -24 -44 -54 -55 -65 -10 -12 -31
-39 -48 -60 -16 -20 -35 -42 -40 -48 -6 -6 -30 -36 -55 -66 -25 -30 -47 -57
-50 -60 -3 -3 -27 -32 -55 -65 -27 -33 -52 -62 -55 -65 -3 -3 -52 -62 -110
-132 -57 -71 -107 -128 -112 -128 -4 0 -8 -6 -8 -13 0 -7 -8 -20 -17 -29 -21
-20 -33 -33 -96 -113 -27 -33 -52 -62 -56 -65 -4 -3 -25 -27 -46 -55 -22 -27
-50 -61 -61 -75 -54 -63 -102 -120 -134 -160 -19 -23 -39 -48 -45 -54 -5 -6
-32 -38 -60 -71 -27 -33 -54 -65 -60 -71 -5 -7 -26 -31 -44 -54 -19 -23 -40
-48 -46 -54 -5 -6 -26 -31 -45 -56 -19 -24 -42 -52 -50 -60 -8 -9 -31 -35 -50
-59 -19 -24 -39 -48 -45 -55 -11 -12 -101 -119 -126 -151 -55 -66 -66 -75 -99
-79 -92 -12 -146 -16 -398 -30 -35 -2 -66 -7 -69 -10 -6 -6 18 -158 27 -168 1
-2 3 -10 5 -19 19 -99 61 -179 94 -179 17 0 23 -20 9 -33 -7 -8 -31 -35 -53
-62 -22 -27 -56 -67 -75 -90 -19 -22 -51 -60 -70 -84 -19 -24 -40 -48 -45 -55
-6 -6 -42 -49 -80 -96 -38 -47 -80 -96 -92 -110 -28 -31 -29 -38 -1 -61 20
-18 22 -18 38 -2 15 16 290 280 480 462 l75 72 65 -8 c123 -15 545 -7 670 12
36 5 129 17 170 20 19 2 49 5 65 8 17 3 51 8 76 11 58 8 100 16 119 21 13 4
53 10 135 21 11 1 21 3 23 4 3 3 10 5 67 15 28 4 55 9 60 11 6 1 26 5 45 8 19
4 42 9 50 11 15 4 28 7 115 25 27 6 140 33 250 61 178 44 233 59 285 77 8 3
20 6 27 7 42 10 226 67 383 121 225 76 461 171 635 255 72 34 136 63 142 65 7
1 19 9 28 17 8 9 25 19 38 23 12 4 24 9 27 13 3 3 21 15 40 25 39 21 208 134
226 150 7 6 39 34 71 61 78 66 132 135 149 192 14 45 13 185 -1 243 -4 14 -8
35 -10 47 -6 39 -65 222 -73 227 -5 3 -40 -18 -78 -46 -76 -56 -379 -258 -387
-258 -3 0 -41 -22 -84 -48 -164 -102 -466 -256 -668 -342 -27 -12 -59 -25 -70
-30 -18 -9 -72 -31 -85 -35 -3 -1 -18 -7 -35 -14 -16 -7 -34 -14 -40 -15 -5
-2 -23 -9 -40 -16 -96 -40 -459 -157 -548 -175 -9 -2 -21 -6 -25 -9 -5 -3 -19
-7 -33 -10 -42 -9 -63 -14 -104 -24 -22 -6 -51 -13 -65 -16 -35 -7 -57 -12
-131 -29 -52 -13 -107 -25 -139 -32 -7 -1 -82 -18 -95 -20 -42 -10 -213 -41
-265 -49 -19 -3 -71 -12 -115 -20 -44 -8 -100 -17 -125 -20 -25 -4 -58 -9 -75
-12 -16 -3 -44 -6 -62 -8 -18 -1 -35 -5 -38 -8 -4 -3 -14 -4 -24 -1 -22 6 -72
-45 560 566 79 76 113 85 160 45 75 -67 112 -58 199 52 25 31 68 84 97 116 58
66 165 192 233 273 25 30 56 66 70 81 14 14 43 48 65 76 22 27 48 58 58 69 10
11 33 37 50 59 18 21 41 48 52 60 18 20 109 127 128 151 8 11 33 39 92 107 22
25 56 65 77 89 60 73 130 155 181 212 46 51 60 86 54 132 -5 52 -24 78 -97
133 -31 24 -68 53 -81 66 -96 88 -166 110 -236 75z m-2010 -2560 c47 -22 70
-90 46 -142 -33 -73 -152 -70 -184 5 -38 91 49 177 138 137z"/>
<path d="M9972 6644 c-103 -19 -219 -83 -291 -159 -51 -55 -109 -144 -112
-172 -1 -5 -5 -16 -11 -26 -5 -10 -11 -28 -14 -40 -2 -12 -7 -42 -12 -67 -10
-58 -7 -169 8 -230 6 -26 13 -54 14 -61 12 -58 76 -175 128 -233 99 -111 222
-167 377 -171 175 -5 321 61 440 198 59 69 107 172 117 252 10 78 3 232 -11
254 -2 4 -7 23 -10 41 -13 71 -88 211 -141 263 -71 68 -169 128 -234 143 -89
20 -170 23 -248 8z m265 -136 c32 -11 64 -27 71 -35 7 -7 17 -13 21 -13 14 0
93 -85 117 -127 115 -194 96 -445 -43 -588 -45 -47 -93 -87 -93 -79 0 3 -15
-3 -32 -14 -40 -24 -124 -50 -155 -47 -13 1 -23 -2 -23 -7 0 -5 -4 -7 -9 -4
-5 3 -37 8 -71 11 -159 14 -304 138 -364 313 -9 23 -13 42 -9 42 3 0 1 6 -4
13 -5 6 -11 50 -12 97 -4 154 50 273 169 371 106 88 301 118 437 67z"/>
<path d="M319 6617 c-63 -48 -95 -91 -139 -182 -61 -126 -90 -314 -66 -425 31
-145 74 -222 180 -323 48 -47 161 -102 245 -121 223 -49 455 56 571 259 31 54
60 124 65 160 2 11 9 47 16 80 16 85 6 226 -23 310 l-24 69 -77 22 c-42 12
-77 20 -77 18 0 -2 -11 1 -26 6 -14 6 -38 12 -54 15 -17 3 -60 12 -96 21 -37
8 -69 12 -72 9 -4 -3 -11 -26 -17 -50 -14 -52 -18 -49 135 -90 52 -14 111 -29
130 -35 19 -5 45 -12 58 -15 13 -4 22 -14 22 -25 0 -10 4 -21 8 -24 16 -10 21
-168 8 -247 -15 -96 -74 -206 -142 -270 -42 -38 -124 -93 -124 -83 0 4 -7 1
-14 -6 -19 -15 -66 -23 -131 -23 -235 1 -415 146 -462 373 -9 44 -4 215 7 215
1 0 3 9 5 19 2 11 6 30 10 43 3 13 5 26 4 29 0 4 3 10 8 13 4 3 17 24 28 46
11 22 48 68 82 101 l61 61 -27 42 -28 41 -44 -33z"/>
<path d="M9621 5126 c-6 -7 -8 -16 -5 -19 3 -3 2 -12 -2 -19 -14 -21 -15 -56
-3 -64 6 -3 59 -19 118 -35 116 -31 185 -50 188 -53 1 -1 -11 -54 -28 -117
-17 -63 -32 -123 -35 -134 -31 -133 -28 -128 -70 -142 -21 -7 -52 -20 -69 -27
-16 -8 -55 -24 -85 -36 -30 -11 -70 -28 -88 -36 -18 -8 -42 -17 -54 -19 -12
-3 -25 -10 -28 -16 -4 -6 -11 -9 -16 -7 -9 3 -32 -64 -33 -99 -1 -24 -1 -24
74 8 22 9 137 52 145 54 3 1 16 6 30 12 14 6 43 16 65 24 22 8 51 19 64 26 32
16 41 9 41 -30 0 -41 27 -113 58 -157 30 -41 92 -100 108 -100 5 0 15 -5 22
-12 6 -6 17 -13 24 -15 7 -1 38 -9 68 -16 120 -29 221 1 312 95 33 34 70 86
87 121 24 51 78 236 96 326 2 12 6 25 9 29 3 5 7 19 10 33 10 46 14 67 25 105
6 21 9 40 7 42 -9 9 -196 59 -201 54 -3 -3 -5 1 -5 8 0 7 -3 11 -6 8 -3 -3
-44 5 -92 19 -48 13 -96 26 -107 29 -11 3 -24 6 -30 8 -5 1 -35 10 -65 19 -30
9 -80 23 -110 31 -88 24 -384 106 -397 111 -6 2 -16 -2 -22 -9z m539 -261 c30
-9 62 -17 70 -18 8 -2 20 -6 26 -9 6 -4 22 -9 36 -12 47 -8 153 -38 171 -47
10 -5 21 -7 26 -5 4 3 16 0 25 -7 17 -12 17 -17 1 -72 -9 -33 -18 -71 -21 -85
-3 -14 -11 -45 -18 -70 -7 -25 -14 -49 -15 -55 -1 -5 -7 -28 -13 -50 -6 -22
-11 -43 -10 -47 1 -5 -1 -8 -6 -8 -4 0 -13 -13 -20 -29 -22 -49 -94 -115 -141
-130 -101 -30 -208 -3 -278 71 -78 81 -88 189 -37 384 18 71 35 140 38 154 2
14 9 37 14 51 10 26 11 27 54 14 24 -8 68 -21 98 -30z"/>
<path d="M446 4552 c-2 -4 -6 -23 -10 -42 -3 -19 -8 -44 -10 -55 -2 -11 -7
-42 -10 -68 l-7 -48 -22 20 c-12 11 -49 45 -82 75 l-60 55 -28 -26 -27 -27 39
-36 c21 -19 60 -53 86 -76 l46 -41 -83 -31 c-46 -18 -89 -32 -95 -32 -19 0
-24 -17 -13 -45 12 -31 7 -31 128 14 l83 31 -6 -53 c-4 -28 -9 -55 -11 -59 -3
-4 -7 -26 -10 -50 -3 -24 -7 -47 -8 -52 -1 -10 53 -28 65 -21 6 4 18 59 35
170 3 22 8 42 10 44 2 2 39 -30 81 -72 l78 -76 27 26 27 26 -47 43 c-26 23
-63 56 -82 73 -22 19 -31 33 -25 39 6 5 46 21 90 36 44 16 84 32 89 36 5 5 4
21 -3 39 l-13 29 -41 -14 c-23 -8 -56 -21 -74 -29 -17 -9 -46 -18 -63 -22 -31
-6 -32 -5 -21 16 7 11 10 21 8 21 -3 0 3 38 13 85 12 57 14 88 7 92 -15 9 -56
12 -61 5z"/>
<path d="M9241 4033 c-12 -16 -24 -32 -29 -38 -4 -5 -61 -84 -127 -175 -156
-217 -222 -307 -255 -350 l-28 -36 38 -31 37 -32 25 27 c13 15 103 134 198
265 95 130 179 237 186 237 7 0 17 -6 21 -13 4 -7 41 -37 81 -67 39 -30 72
-58 72 -62 0 -5 4 -8 10 -8 10 0 25 -11 88 -66 l36 -31 -89 -119 c-49 -66
-120 -162 -159 -214 -39 -52 -74 -96 -78 -98 -26 -11 34 -90 61 -80 8 2 57 66
126 163 7 11 37 51 64 88 28 37 51 72 51 77 0 6 3 10 8 10 4 0 23 25 42 55 19
30 37 54 40 55 12 0 130 -91 130 -101 0 -5 5 -7 10 -4 6 3 10 2 10 -2 0 -5 12
-16 28 -26 15 -9 41 -29 59 -44 17 -15 41 -36 52 -46 l22 -17 -59 -78 c-48
-63 -247 -337 -301 -414 -14 -18 -12 -22 18 -49 19 -16 37 -29 41 -29 5 0 40
44 79 98 217 297 361 501 361 509 0 5 -29 31 -65 58 -36 27 -65 53 -65 57 0 5
-5 8 -11 8 -6 0 -17 6 -24 13 -8 6 -27 22 -42 34 -15 13 -46 37 -69 55 -22 18
-57 47 -78 63 -22 17 -76 59 -121 95 -45 36 -98 79 -119 95 -21 17 -85 67
-142 113 -57 45 -105 82 -108 82 -2 0 -14 -12 -25 -27z"/>
<path d="M1580 3745 l-34 -35 35 -37 c18 -20 45 -48 59 -63 84 -89 293 -311
323 -344 l36 -40 -142 -143 -142 -144 -70 74 c-59 62 -162 173 -289 310 -14
15 -28 27 -31 27 -7 0 -64 -63 -65 -71 0 -4 12 -20 28 -37 15 -16 70 -76 122
-132 52 -57 103 -112 113 -124 10 -12 35 -39 56 -61 20 -22 40 -45 44 -51 6
-11 -21 -42 -189 -216 l-65 -67 -56 62 c-31 34 -105 114 -164 177 -59 63 -130
140 -158 170 l-51 55 -37 -37 -37 -37 51 -53 c65 -67 114 -120 222 -237 47
-52 121 -131 163 -175 l77 -81 172 175 c94 96 266 271 381 388 191 194 208
214 195 232 -7 10 -51 59 -97 108 -47 49 -130 138 -185 198 -55 59 -129 139
-165 176 l-65 69 -35 -36z"/>
<path d="M2349 3018 c-3 -20 -2 -39 5 -103 3 -33 8 -85 11 -115 6 -77 16 -170
21 -203 l4 -27 -62 2 c-136 4 -228 -44 -300 -155 -86 -132 -95 -256 -28 -388
48 -96 115 -152 344 -288 113 -68 208 -122 210 -120 1 2 24 42 50 89 26 47 51
92 56 100 5 8 23 42 41 75 17 33 42 76 55 95 13 19 24 37 24 41 0 3 50 94 110
203 61 108 110 201 110 206 0 6 5 10 10 10 6 0 10 5 10 11 0 6 15 37 34 69
l35 59 -51 31 c-27 17 -51 30 -52 28 0 -2 -6 -12 -12 -23 -6 -11 -30 -56 -54
-100 -71 -132 -92 -170 -98 -177 -4 -3 -61 27 -127 68 -66 40 -138 83 -161 95
-34 18 -40 26 -43 57 -2 20 -5 53 -7 72 -2 19 -5 60 -8 90 -3 30 -8 84 -12
120 -4 36 -8 77 -9 93 -1 15 -4 29 -6 30 -41 34 -99 65 -100 55z m114 -599
c25 -13 105 -60 175 -103 103 -63 128 -83 124 -98 -2 -10 -8 -18 -13 -18 -5 0
-9 -5 -9 -10 0 -6 -22 -50 -49 -98 -27 -48 -49 -91 -49 -96 0 -5 -4 -12 -9
-15 -6 -3 -27 -37 -47 -76 -33 -60 -74 -132 -82 -143 -2 -3 -41 17 -83 43 -9
6 -61 37 -115 69 -178 107 -237 187 -232 312 5 134 88 239 216 274 33 9 114
-10 173 -41z"/>
<path d="M8669 2408 c0 -2 -2 -10 -4 -18 -2 -8 -18 -49 -37 -90 -32 -72 -58
-113 -58 -91 0 13 -102 181 -110 181 -3 -1 -15 -9 -28 -20 l-23 -19 36 -63
c20 -35 45 -77 56 -94 13 -21 15 -31 6 -32 -44 -4 -159 -3 -164 1 -15 16 -41
-14 -39 -45 2 -33 2 -33 51 -33 28 0 74 2 103 6 49 5 76 -5 56 -20 -9 -6 -16
-18 -61 -100 -14 -25 -29 -50 -34 -55 -8 -9 4 -24 39 -44 16 -9 22 -9 22 0 0
6 7 19 16 29 8 9 16 23 18 31 1 7 14 39 30 71 28 55 46 72 46 42 0 -8 5 -15
10 -15 6 0 10 -7 10 -15 0 -8 4 -15 9 -15 5 0 11 -8 15 -17 5 -16 25 -52 49
-90 6 -9 14 -10 32 -1 35 16 37 31 6 80 -15 23 -40 65 -56 91 l-28 48 64 -1
c35 -1 86 -1 112 -1 l48 1 -3 38 -3 37 -80 -3 c-44 -1 -89 -4 -100 -6 -11 -2
-23 -2 -27 0 -4 3 16 47 43 99 27 52 49 97 49 100 0 9 -68 40 -71 33z"/>
<path d="M7088 2385 c-2 -2 -15 -6 -28 -8 -27 -4 -42 -9 -105 -35 -74 -30
-161 -104 -210 -179 -15 -24 -30 -43 -33 -43 -9 0 -77 44 -80 52 -2 4 -11 8
-20 8 -9 0 -28 9 -42 20 -22 17 -63 29 -47 14 3 -4 -2 -23 -13 -44 l-19 -37
67 -38 c37 -21 70 -43 74 -49 4 -6 8 -8 8 -3 0 4 11 0 25 -9 14 -9 22 -20 19
-25 -13 -21 -30 -147 -29 -214 l0 -50 46 -1 45 -1 1 93 c1 86 17 149 32 128 6
-9 96 -63 211 -127 119 -66 147 -88 122 -99 -12 -4 -83 -105 -112 -158 -19
-35 -24 -59 -24 -110 1 -82 6 -101 40 -144 43 -53 94 -78 163 -77 63 0 161 29
195 58 45 38 85 85 102 121 21 43 23 132 5 177 -7 17 -12 31 -11 33 3 8 -89
91 -134 122 -40 27 -46 35 -35 44 41 32 127 165 149 231 45 137 -23 285 -154
334 -45 17 -196 28 -208 16z m166 -125 c37 -22 81 -81 84 -110 8 -77 7 -110
-5 -140 -16 -42 -66 -114 -104 -153 l-27 -27 -64 36 c-34 20 -74 44 -88 52
-14 9 -26 14 -26 11 -1 -2 -10 3 -20 12 -19 15 -81 53 -159 95 -22 12 -41 28
-43 36 -5 23 68 113 121 149 28 19 52 34 56 35 3 0 17 5 31 11 46 19 64 22
136 19 53 -2 81 -9 108 -26z m72 -627 c44 -42 72 -103 68 -145 -8 -65 -75
-129 -150 -144 -22 -5 -43 -7 -47 -6 -4 1 -15 4 -25 5 -37 6 -65 31 -84 73
-31 71 -15 126 71 234 19 25 40 48 45 52 14 9 76 -27 122 -69z"/>
<path d="M3658 2335 c-2 -2 -21 -5 -43 -8 -109 -16 -216 -80 -310 -189 -31
-35 -36 -43 -72 -113 -48 -91 -58 -139 -57 -275 0 -128 5 -155 51 -247 60
-123 168 -219 302 -270 83 -31 96 -34 201 -38 111 -4 169 7 258 51 184 90 316
319 305 529 -2 38 -4 78 -4 87 0 27 -47 147 -76 197 -63 110 -211 217 -350
255 -51 14 -197 28 -205 21z m243 -140 c60 -24 132 -75 176 -125 25 -28 82
-137 88 -166 2 -10 4 -19 5 -19 10 0 15 -165 6 -211 -56 -300 -374 -460 -643
-323 -165 83 -258 249 -248 441 11 229 170 406 390 435 22 3 41 6 43 7 8 8
132 -18 183 -39z"/>
<path d="M4689 2098 c-2 -24 -7 -285 -14 -653 -4 -203 -8 -389 -9 -412 -2 -33
1 -43 13 -44 9 0 30 -1 48 -2 31 -2 35 3 90 98 32 54 60 104 63 110 3 5 12 21
21 35 9 14 87 148 174 298 87 150 161 270 166 265 4 -4 22 -35 40 -68 33 -62
74 -139 133 -247 18 -35 53 -99 76 -143 24 -44 55 -102 70 -130 15 -27 47 -86
70 -130 55 -105 55 -105 106 -105 34 0 43 4 43 18 0 9 3 143 6 297 3 154 7
377 9 496 2 119 6 221 9 226 3 5 2 15 -2 22 -4 7 -6 23 -3 37 4 23 2 24 -52
24 l-56 0 -1 -97 c-1 -54 -2 -172 -4 -263 -2 -91 -5 -243 -7 -337 -2 -95 -6
-173 -10 -173 -4 0 -16 19 -27 42 -11 24 -40 79 -64 123 -24 44 -65 121 -91
170 -27 50 -63 117 -81 150 -18 33 -52 96 -75 140 -61 114 -61 114 -91 113
-23 -1 -36 -18 -110 -145 -46 -79 -94 -160 -106 -181 -13 -20 -26 -43 -29 -51
-7 -14 -113 -196 -163 -279 -14 -24 -31 -53 -38 -65 -10 -18 -11 35 -7 258 3
154 7 355 8 448 l2 167 -53 0 c-35 0 -53 -4 -54 -12z"/>
</g>
</svg>
